<svg width="12" height="12" viewBox="0 0 12 12" fill="none" xmlns="http://www.w3.org/2000/svg">
<path d="M11.2898 2.77324L9.33311 0.806575C9.20381 0.67793 9.02884 0.605713 8.84644 0.605713C8.66405 0.605713 8.48908 0.67793 8.35978 0.806575L1.42311 7.73324L0.789775 10.4666C0.767927 10.5665 0.768676 10.67 0.791967 10.7696C0.815258 10.8692 0.860503 10.9623 0.924396 11.0422C0.988289 11.1221 1.06922 11.1867 1.16127 11.2312C1.25332 11.2758 1.35416 11.2993 1.45644 11.2999C1.5041 11.3047 1.55212 11.3047 1.59978 11.2999L4.36311 10.6666L11.2898 3.74658C11.4184 3.61728 11.4906 3.4423 11.4906 3.25991C11.4906 3.07751 11.4184 2.90254 11.2898 2.77324ZM4.02978 10.0666L1.43978 10.6099L2.02978 8.06991L7.21978 2.89991L9.21978 4.89991L4.02978 10.0666ZM9.66644 4.41658L7.66644 2.41658L8.82644 1.26324L10.7931 3.26324L9.66644 4.41658Z" fill="#538D22"/>
</svg>
