<svg width="25" height="24" viewBox="0 0 25 24" fill="none" xmlns="http://www.w3.org/2000/svg">
<path d="M19.5312 9.75C19.5312 7.95979 18.7905 6.2429 17.4718 4.97703C16.1532 3.71116 14.3648 3 12.5 3C10.6352 3 8.84677 3.71116 7.52816 4.97703C6.20954 6.2429 5.46875 7.95979 5.46875 9.75C5.46875 12.519 7.77656 16.128 12.5 20.451C17.2234 16.128 19.5312 12.519 19.5312 9.75ZM12.5 22.5C6.77031 17.5005 3.90625 13.2495 3.90625 9.75C3.90625 7.56196 4.81166 5.46354 6.4233 3.91637C8.03494 2.36919 10.2208 1.5 12.5 1.5C14.7792 1.5 16.9651 2.36919 18.5767 3.91637C20.1883 5.46354 21.0938 7.56196 21.0938 9.75C21.0938 13.2495 18.2297 17.5005 12.5 22.5Z" fill="#222222"/>
<path d="M12.5 12C13.1216 12 13.7177 11.7629 14.1573 11.341C14.5968 10.919 14.8438 10.3467 14.8438 9.75C14.8438 9.15326 14.5968 8.58097 14.1573 8.15901C13.7177 7.73705 13.1216 7.5 12.5 7.5C11.8784 7.5 11.2823 7.73705 10.8427 8.15901C10.4032 8.58097 10.1562 9.15326 10.1562 9.75C10.1562 10.3467 10.4032 10.919 10.8427 11.341C11.2823 11.7629 11.8784 12 12.5 12ZM12.5 13.5C11.464 13.5 10.4704 13.1049 9.73786 12.4017C9.0053 11.6984 8.59375 10.7446 8.59375 9.75C8.59375 8.75544 9.0053 7.80161 9.73786 7.09835C10.4704 6.39509 11.464 6 12.5 6C13.536 6 14.5296 6.39509 15.2621 7.09835C15.9947 7.80161 16.4062 8.75544 16.4062 9.75C16.4062 10.7446 15.9947 11.6984 15.2621 12.4017C14.5296 13.1049 13.536 13.5 12.5 13.5Z" fill="#222222"/>
</svg>
