<svg width="34" height="39" viewBox="0 0 34 39" fill="none" xmlns="http://www.w3.org/2000/svg">
<path d="M29.6478 38.7751L11.8867 38.7751C10.84 38.7751 9.83604 38.3666 9.09585 37.6394C8.35566 36.9123 7.93983 35.926 7.93983 34.8976V31.0201L11.8867 31.0201V34.8976L29.6478 34.8976L29.6478 3.87749L11.8867 3.87749V7.75501L7.93983 7.75501V3.87749C7.93983 2.84911 8.35566 1.86285 9.09585 1.13568C9.83604 0.408501 10.84 -2.28882e-05 11.8867 -2.28882e-05L29.6478 -2.28882e-05C30.6946 -2.28882e-05 31.6985 0.408501 32.4387 1.13568C33.1789 1.86285 33.5947 2.84911 33.5947 3.87749L33.5947 34.8976C33.5947 35.926 33.1789 36.9123 32.4387 37.6394C31.6985 38.3666 30.6946 38.7751 29.6478 38.7751Z" fill="#777777"/>
<path d="M6.66039 12.575L5.19531 9.896L0 19.396L5.19531 28.896L6.66039 26.217L3.97961 21.296L14.0273 21.296V17.496H3.97961L6.66039 12.575Z" fill="#777777"/>
</svg>
