<svg width="640" height="512" viewBox="0 0 640 512" fill="none" xmlns="http://www.w3.org/2000/svg">
<path d="M319.9 320C377.31 320 423 273.44 423 216C423 158.56 376.46 112 319.9 112C262.49 112 216.8 158.56 216.8 216C215.9 273.4 262.5 320 319.9 320ZM369.9 352H270.1C191.6 352 128 411.7 128 485.3C128 500.1 140.7 512 156.4 512H483.6C499.3 512 512 500.1 512 485.3C512 411.7 448.4 352 369.9 352ZM512 160C556.18 160 592 124.18 592 80C592 35.82 556.2 0 512 0C467.82 0 432 35.82 432 80C432 124.18 467.8 160 512 160ZM183.9 216C183.9 210.551 184.882 205.37 185.509 200.09C174.6 194.1 162.6 192 149.9 192H88.08C39.44 192 0 233.8 0 285.3C0 295.6 7.887 304 17.62 304H217.12C196.7 280.2 183.9 249.7 183.9 216V216ZM128 160C172.18 160 208 124.18 208 80C208 35.82 172.2 0 128 0C83.82 0 48 35.82 48 80C48 124.18 83.82 160 128 160ZM551.9 192H490.06C477.26 192 465.18 195.037 454.2 200.24C454.8 205.5 455.8 210.6 455.8 216C455.8 249.71 443.02 280.21 422.64 304H622.34C632.1 304 640 295.6 640 285.3C640 233.8 600.6 192 551.9 192V192Z" fill="black"/>
</svg>
