<svg width="20" height="20" viewBox="0 0 20 20" fill="none" xmlns="http://www.w3.org/2000/svg">
<path d="M10 0C15.5223 0 20 4.47768 20 10C20 15.5223 15.5223 20 10 20C4.47768 20 -4.76837e-07 15.5223 -4.76837e-07 10C-4.76837e-07 4.47768 4.47768 0 10 0ZM5.71429 10.5357C5.71429 10.6339 5.79464 10.7143 5.89286 10.7143H9.28571V14.1071C9.28571 14.2054 9.36607 14.2857 9.46429 14.2857H10.5357C10.6339 14.2857 10.7143 14.2054 10.7143 14.1071V10.7143H14.1071C14.2054 10.7143 14.2857 10.6339 14.2857 10.5357V9.46429C14.2857 9.36607 14.2054 9.28571 14.1071 9.28571H10.7143V5.89286C10.7143 5.79464 10.6339 5.71429 10.5357 5.71429H9.46429C9.36607 5.71429 9.28571 5.79464 9.28571 5.89286V9.28571H5.89286C5.79464 9.28571 5.71429 9.36607 5.71429 9.46429V10.5357Z" fill="black"/>
</svg>
