<svg width="16" height="16" viewBox="0 0 16 16" fill="none" xmlns="http://www.w3.org/2000/svg">
<path d="M0.235204 2.77221L2.6344 0.246738C2.70857 0.168386 2.79672 0.106249 2.89379 0.0639035C2.99086 0.021558 3.09493 -0.000159536 3.2 8.82251e-07H12.8C12.9051 -0.000159536 13.0091 0.021558 13.1062 0.0639035C13.2033 0.106249 13.2914 0.168386 13.3656 0.246738L15.7648 2.77221C15.8395 2.85025 15.8988 2.94314 15.9392 3.04549C15.9796 3.14783 16.0002 3.2576 16 3.36842V14.3158C16 15.2446 15.2824 16 14.4 16H1.6C0.717603 16 2.86102e-06 15.2446 2.86102e-06 14.3158V3.36842C-0.000238419 3.2576 0.0204268 3.14783 0.0608015 3.04549C0.101176 2.94314 0.160458 2.85025 0.235204 2.77221ZM12.4688 1.68421H3.5312L2.7312 2.52632H13.2688L12.4688 1.68421ZM14.4 14.3158V4.21053H1.6L1.5984 14.3158H14.4Z" fill="black"/>
<path d="M6.4 5.89478H9.6V8.42109H12L8 12.6316L4 8.42109H6.4V5.89478Z" fill="black"/>
</svg>
