<svg width="20" height="20" viewBox="0 0 20 20" fill="none" xmlns="http://www.w3.org/2000/svg">
<path d="M15.8333 9.09265H4.16667C3.24619 9.09265 2.5 9.81241 2.5 10.7003V16.327C2.5 17.2149 3.24619 17.9346 4.16667 17.9346H15.8333C16.7538 17.9346 17.5 17.2149 17.5 16.327V10.7003C17.5 9.81241 16.7538 9.09265 15.8333 9.09265Z" stroke="black" stroke-linecap="round" stroke-linejoin="round"/>
<path d="M5.8335 9.09261V5.87735C5.8335 4.81143 6.27248 3.78916 7.05388 3.03544C7.83529 2.28171 8.89509 1.85828 10.0002 1.85828C11.1052 1.85828 12.165 2.28171 12.9464 3.03544C13.7278 3.78916 14.1668 4.81143 14.1668 5.87735V9.09261" stroke="black" stroke-linecap="round" stroke-linejoin="round"/>
</svg>
