<svg width="20" height="20" viewBox="0 0 20 20" fill="none" xmlns="http://www.w3.org/2000/svg">
<path d="M0 1V3C0 4.85652 0.776314 6.63699 2.15816 7.94975C3.54001 9.2625 5.41419 10 7.36842 10H8.42105V11H3.15789V18C3.15789 18.5304 3.3797 19.0391 3.77451 19.4142C4.16932 19.7893 4.70481 20 5.26316 20H13.6842C14.2426 20 14.778 19.7893 15.1729 19.4142C15.5677 19.0391 15.7895 18.5304 15.7895 18V11H10.5263V8C10.5263 6.14349 9.75 4.36301 8.36815 3.05025C6.98631 1.7375 5.11212 1 3.15789 1H0ZM16.3158 2.45925e-06C15.0527 -0.00096985 13.8078 0.286386 12.6859 0.837876C11.5641 1.38937 10.5982 2.18885 9.86947 3.169C10.9817 4.55758 11.5824 6.25512 11.5789 8V9H12.1053C14.1991 9 16.2071 8.20983 17.6877 6.8033C19.1682 5.39678 20 3.48913 20 1.5V2.45925e-06H16.3158Z" fill="#D7FFA6"/>
</svg>
