<svg width="50" height="50" viewBox="0 0 50 50" fill="none" xmlns="http://www.w3.org/2000/svg">
<path d="M25 0C21.5909 0 18.9276 1.31448 17.0099 3.94345C15.0923 6.57242 14.1335 9.93304 14.1335 14.0253C14.1098 19.1096 15.6723 23.1399 18.821 26.1161C19.2235 26.5129 19.3655 27.0213 19.2472 27.6414L18.4304 29.4271C18.17 30.0223 17.7853 30.4874 17.2763 30.8222C16.7673 31.157 15.696 31.6344 14.0625 32.2545C13.9915 32.2793 12.4941 32.7877 9.57031 33.7798C6.64654 34.7718 5.08996 35.3175 4.90057 35.4167C2.91193 36.2847 1.60985 37.19 0.994318 38.1324C0.331439 39.6949 0 43.6508 0 50H50C50 43.6508 49.6686 39.6949 49.0057 38.1324C48.3902 37.19 47.0881 36.2847 45.0994 35.4167C44.91 35.3175 43.3535 34.7718 40.4297 33.7798C37.5059 32.7877 36.0085 32.2793 35.9375 32.2545C34.304 31.6344 33.2327 31.157 32.7237 30.8222C32.2147 30.4874 31.83 30.0223 31.5696 29.4271L30.7528 27.6414C30.6345 27.0213 30.7765 26.5129 31.179 26.1161C34.3277 23.1399 35.8902 19.1096 35.8665 14.0253C35.8665 9.93304 34.9077 6.57242 32.9901 3.94345C31.0724 1.31448 28.4091 0 25 0Z" fill="black"/>
</svg>
